<svg xmlns="http://www.w3.org/2000/svg" width="520.108" height="495.568" viewBox="0 0 520.108 495.568">
  <defs>
    <style>
      .cls-1 {
        fill: #fafafa;
      }
    </style>
  </defs>
  <g id="Group_1045" data-name="Group 1045" transform="translate(-1436 -1176.343)">
    <g id="Group_953" data-name="Group 953" transform="translate(954.858 684.586)">
      <path id="Path_3941" data-name="Path 3941" class="cls-1" d="M728.846,538.486c119.322-1.063,120.086,2.536,272.4,1.068V528.368c-353.955-3.394-267.046-6.543-477.643.158-4.333.138-19.785.058-42.465-.158v11.185c43.542-.421,99.438-1.255,174.063-2.73C706.442,535.81,700.176,538.738,728.846,538.486Z" transform="translate(0 40.33)"/>
      <path id="Path_3942" data-name="Path 3942" class="cls-1" d="M748.387,502.833c115.981-3.6,39.129-6.3,220.016-.615,10.954.345,21.9.553,32.846.693V491.757H701.386c-47.695,2.6-35.9,3.29-136.087.722-3.126-.08-5.509-.4-8.332-.722H481.142v11.154q19.88.257,39.7.259C697.022,503.426,633.738,506.39,748.387,502.833Z" transform="translate(0 0)"/>
      <path id="Path_3943" data-name="Path 3943" class="cls-1" d="M481.142,713.618v1.121h71.414C542.525,713.527,546.76,714.347,481.142,713.618Z" transform="translate(0 272.586)"/>
      <path id="Path_3944" data-name="Path 3944" class="cls-1" d="M856.639,714.856c-38.917-.432-148.743-2.244-180.089-2.244-15.632,0-30.708,3.149-45.765,3.149-15.293,0-28.417-1.417-56.567.214H856.639Z" transform="translate(144.611 271.35)"/>
      <path id="Path_3945" data-name="Path 3945" class="cls-1" d="M917.472,538.451l0-.007,0,0c23.76.343,52.3.688,83.771.985V503.485c-239.38-6.213-173.943,3.983-352.405,1.014-46.63-.776-109.428.5-167.7-1.014v35.939C899.691,543.367,712.424,535.074,917.472,538.451Zm48.738-19.67a8.873,8.873,0,0,1,12.844-4.582,7.157,7.157,0,0,1,.48,12.1C975.594,533.608,963.335,526.347,966.21,518.781ZM927.377,513.6c1.074.513,5.232,5.092,5.232,8.382,0,10.113-19.03,12.748-19.03-.457C913.579,513.746,921.712,510.9,927.377,513.6Zm-58.823-.974c12.735-4.277,15.27,19.746-.054,19.746C857.91,532.371,856.5,516.672,868.554,512.625Zm-43.894.974c1.077.513,5.232,5.092,5.232,8.382,0,10.113-19.03,12.748-19.03-.457C810.861,513.746,819,510.9,824.659,513.6Zm-65.4,2.376c2.837-1.012,6.017-2.137,8.944-2.137,5.31,0,9.169,4.279,7.25,10.321-1.462,4.609-3.221,7.551-8.488,7.551C755.772,531.709,753.245,518.125,759.262,515.975Zm-49.481-2.246a7.272,7.272,0,0,1,6.01-1.774,4.984,4.984,0,0,1,2.757,1.654.428.428,0,0,0,.062.083c5.757,3.336,5.232,14.459-3.171,14.767C704.358,532.317,699.469,518.484,709.781,513.728ZM499.66,528.845a7.656,7.656,0,0,1-1.874-4.359c-2.532-5.652,1.709-12.133,8.753-12.133a8.189,8.189,0,0,1,8.483,8.58C515.022,529.806,504.535,533.75,499.66,528.845Zm52.065-.125c-7.776-6.6-1.306-20.934,8.055-15.986C575.086,520.822,561.856,537.316,551.726,528.72Zm65.515-4.319c-2.262,5.095-12.487,10.042-15.818-1.21-1.616-5.46,2.272-11.491,8.019-10.167C615.222,512.85,619.59,519.11,617.241,524.4Zm39.193-7.15c4.953-5.7,14.969-3.862,15.89,3.544a6.626,6.626,0,0,1-1.751,5.424C664.713,535.19,647.747,527.252,656.433,517.252Z" transform="translate(0 11.895)"/>
      <path id="Path_3946" data-name="Path 3946" class="cls-1" d="M773.067,575.005c106.487-.949,118.562,1.816,228.183,1.377V564.406c-533.186-6.256-296.809,2.621-520.108,0V576.38C525.7,576.2,586.33,575.5,676.007,573.8,716.535,575.591,715.356,575.52,773.067,575.005Z" transform="translate(0 86.455)"/>
      <path id="Path_3947" data-name="Path 3947" class="cls-1" d="M737.169,575.484l0-.007,0,0c64.843.938,165.133,1.885,264.077,1.834V567.024c-10.6-1.689-8.848-13.575,0-15.768V541.8c-15.215-.383-35.026-.635-69.256-.526-141.428.45-135.171-2.708-190.168-2.708-11.375,0-21.964.963-33.111,1.094-141.584,1.651-62.325,6.309-227.572,2.14v9.461c8.911-2.208,13.826,7.227,9.127,12a8.9,8.9,0,0,1-9.127,3.771v10.283C674.029,577.2,654.734,574.129,737.169,575.484Zm212.078-25.427c5.778-.174,10.149,6.086,7.8,11.377-2.262,5.095-12.487,10.042-15.819-1.21C939.611,554.764,943.5,548.733,949.246,550.057ZM904,552.974a8.872,8.872,0,0,1,2.549,6.276c0,8.172-9.52,11.17-15.021,6.5C882.784,558.332,891.895,540.8,904,552.974Zm-57.659-3.588a8.191,8.191,0,0,1,8.485,8.58c0,8.872-10.487,12.817-15.362,7.912a7.685,7.685,0,0,1-1.876-4.361C835.059,555.87,839.3,549.386,846.341,549.386ZM785.9,555.814a8.874,8.874,0,0,1,12.844-4.582,7.155,7.155,0,0,1,.48,12.1C795.291,570.641,783.031,563.38,785.9,555.814Zm-51.833.245c.189-.43,5.026-5.625,8.762-5.625a8.416,8.416,0,0,1,7.913,5.866,20.29,20.29,0,0,1,1.526,6.688c0,4.945-4.269,7.321-7.816,7.321-5.911,0-11.013-6.247-11.013-11.27A7.121,7.121,0,0,1,734.071,556.059Zm-198.935,9.432c-11.081,3.86-15.97-9.973-5.658-14.729a7.272,7.272,0,0,1,6.01-1.774,5,5,0,0,1,2.757,1.654.414.414,0,0,0,.059.082C544.064,554.06,543.538,565.183,535.136,565.491Zm41.486-7.45a7.1,7.1,0,0,1,2.459-5.159c5.644-7.731,17.974-5.46,17.974,4.221C597.054,571.392,576.621,568.729,576.621,558.04Zm68.333,4.937c-1.574,5.244-8.819,6.064-12.75,2.126-3.348-1.977-3.459-5.458-2.082-8.877C631.524,543.035,654.692,552.972,644.955,562.977Zm44.328,3.969c-18.114-1.226-6.33-20.983,2.823-16.492C701.324,551.116,701.414,567.766,689.282,566.946Z" transform="translate(0 57.506)"/>
      <path id="Path_3948" data-name="Path 3948" class="cls-1" d="M742.045,614.556c135.406,0,124.5,2.474,259.2,1.174V604.545c-335.174-3.214-259.178-6.8-477.643.158-4.333.138-19.782.058-42.465-.158V615.73c43.542-.421,99.438-1.252,174.063-2.73C717.649,611.765,708.113,614.556,742.045,614.556Z" transform="translate(0 133.862)"/>
      <path id="Path_3949" data-name="Path 3949" class="cls-1" d="M746.38,612.608c19.541-.169,43.693.782,121.681,2.066l0-.007v0c35.7.515,82.145,1.034,133.184,1.386V580.426c-67.829-.394-67.789-2.079-138.853-2.81-87.11-.9-193.578,5.286-227.842,4.083-59.164-2.075-85.172-.876-153.413-1.273v35.625C813.573,618.353,679.7,613.185,746.38,612.608Zm230.857-24.031c11.618,0,11.024,17.245-.3,18.551a8.41,8.41,0,0,1-6.576-2.059,7.673,7.673,0,0,1-1.874-4.359C965.954,595.057,970.192,588.576,977.237,588.576ZM916.8,595a8.874,8.874,0,0,1,12.844-4.582,7.158,7.158,0,0,1,.478,12.1C926.184,609.831,913.925,602.57,916.8,595Zm-38.833-5.182c1.074.512,5.232,5.092,5.232,8.382,0,10.114-19.03,12.748-19.03-.455C864.169,589.969,872.3,587.126,877.967,589.822Zm-58.823-.972c12.735-4.279,15.27,19.744-.054,19.744C808.5,608.594,807.09,592.9,819.143,588.851Zm-43.894.972c1.077.512,5.232,5.092,5.232,8.382,0,10.114-19.03,12.748-19.03-.455C761.451,589.969,769.586,587.126,775.249,589.822Zm-65.532,2.425c2.868-1.025,6.1-2.186,9.079-2.186,11.536,0,9.808,17.334-2.75,17.334C708.506,607.4,704.89,598.628,709.717,592.247Zm-51.583-.954c3.8-2.926,10.241-3.519,13.235.6,3.249,4.468,1.794,12.527-5.341,12.788C655.858,608.224,650.9,596.86,658.135,591.293Zm-51.112,2.184c4.953-5.7,14.969-3.862,15.89,3.543a6.624,6.624,0,0,1-1.751,5.422C615.3,611.415,598.336,603.477,607.023,593.477ZM502.315,604.944c-8.746-7.421.364-24.958,12.47-12.779a8.874,8.874,0,0,1,2.549,6.278C517.334,606.613,507.815,609.61,502.315,604.944Zm65.515-4.319c-2.262,5.095-12.487,10.044-15.818-1.208-1.616-5.46,2.272-11.491,8.019-10.169C565.81,589.073,570.18,595.334,567.83,600.624Z" transform="translate(0 105.38)"/>
      <path id="Path_3950" data-name="Path 3950" class="cls-1" d="M723.967,650.17c26.692,0,.719,2.017,98.511,1.146,87.95-.784,111.492.963,178.772,1.35V640.112c-474.548-5.933-215.6,3.807-520.108,0v12.552C578.978,653.225,714.994,650.17,723.967,650.17Z" transform="translate(0 179.856)"/>
      <path id="Path_3951" data-name="Path 3951" class="cls-1" d="M1001.25,653.506V643.225c-10.6-1.691-8.848-13.577,0-15.77V618c-15.215-.386-35.026-.637-69.256-.528-131.369.419-113.191-1.863-196.332-2.8-2.629-.029-148.444,5.681-190.613,5.088-30.262-.426-42.557-1.224-63.906-1.761v9.458c8.9-2.206,13.831,7.225,9.127,12a8.907,8.907,0,0,1-9.127,3.773v10.281c83.073-.045,165.2-.793,224.593-2.844C753.936,649,668.873,653.68,1001.25,653.506Zm-52-27.25c5.778-.174,10.149,6.086,7.8,11.377-2.262,5.095-12.487,10.044-15.819-1.208C939.611,630.966,943.5,624.935,949.246,626.257ZM904,629.176a9.115,9.115,0,0,1,1.784,10.02c-2.021,4.829-9.413,6.866-14.257,2.757C882.784,634.532,891.895,616.994,904,629.176Zm-62.884-2.184c6.1-3.485,13.71-.361,13.71,7.176,0,8.87-10.487,12.815-15.362,7.91a7.681,7.681,0,0,1-1.876-4.359A8.43,8.43,0,0,1,841.117,626.992ZM785.9,632.013a8.875,8.875,0,0,1,12.844-4.582,7.157,7.157,0,0,1,.48,12.1C795.291,646.843,783.031,639.582,785.9,632.013Zm-51.833.245a11.165,11.165,0,0,1,10.057-6.314c11.846,0,12.891,17.918.835,17.918a8.335,8.335,0,0,1-4.607-1.335C735.765,641.6,731.911,637.141,734.071,632.258ZM535.136,641.69c-11.081,3.86-15.97-9.971-5.658-14.729a7.263,7.263,0,0,1,6.01-1.772,5,5,0,0,1,2.757,1.651.414.414,0,0,0,.059.083C544.064,630.262,543.538,641.385,535.136,641.69Zm41.687-9.015a7.739,7.739,0,0,1,2.257-3.595c5.644-7.731,17.974-5.46,17.974,4.223C597.054,648.755,573.82,643.977,576.822,632.675Zm68.132,6.5c-1.574,5.244-8.819,6.064-12.75,2.128-3.348-1.979-3.459-5.46-2.082-8.879C631.524,619.234,654.692,629.172,644.955,639.176Zm44.328,3.969c-18.114-1.226-6.33-20.983,2.823-16.492C701.324,627.315,701.414,643.968,689.282,643.145Z" transform="translate(0 151.015)"/>
      <path id="Path_3952" data-name="Path 3952" class="cls-1" d="M737.6,689.282c23.918,0,47.849,1.83,71.791,1.616,93.425-.833,114.154,1.192,191.86,1.406V679.857c-208.18-2.576-179.487-5.846-397.1,1.081-8.431.267-58.9-.288-123.008-1.081V692.3C583.64,692.587,725.368,689.282,737.6,689.282Z" transform="translate(0 227.337)"/>
      <path id="Path_3953" data-name="Path 3953" class="cls-1" d="M998.017,689.726l0-.007,0,0c1.053.013,2.158.029,3.228.044V681.62c-9.4-1.518-9.782-15.462,0-17.508V652.769c-118.425-1.473-190.866,5.106-199.018,4.976-48.173-.76-49.23-2.492-129.5-2.235-128.806.412-113.858-1.774-191.593-2.741v11.344a10.614,10.614,0,0,1,6.671.762c1.074.51,5.232,5.093,5.232,8.38,0,5.915-6.5,9.238-11.9,8.366v8.139C897.869,695.683,783.517,686.194,998.017,689.726ZM949.1,663.9c12.735-4.277,15.27,19.744-.054,19.744C938.453,683.644,937.043,667.948,949.1,663.9Zm-43.892.974c1.074.51,5.232,5.093,5.232,8.38,0,10.116-19.03,12.748-19.03-.455C891.407,665.019,899.54,662.176,905.2,664.874Zm-48.272,7.941c0,3.717-3.575,8.531-8.6,9.432-5.6,1-9.865-3.9-9.865-9.149C838.466,662.218,856.933,660.114,856.933,672.815ZM539.97,677.571c-3.94,7.312-16.2.051-13.325-7.515a8.874,8.874,0,0,1,12.844-4.582A7.155,7.155,0,0,1,539.97,677.571Zm40.234,2.55a7.682,7.682,0,0,1-1.874-4.361c-2.529-5.649,1.708-12.13,8.753-12.13a8.189,8.189,0,0,1,8.483,8.58C595.566,681.079,585.081,685.023,580.2,680.121Zm52.065-.127c-8.746-7.421.364-24.958,12.473-12.777a8.867,8.867,0,0,1,2.546,6.276C647.288,681.665,637.768,684.663,632.269,679.994Zm162.01-15.478c11.928,0,10.828,14.883,1.7,15.215C782.494,684.431,780.235,664.516,794.279,664.516Zm-96.495,11.161c-2.262,5.095-12.484,10.042-15.816-1.21-1.616-5.46,2.269-11.491,8.017-10.169C695.766,664.126,700.134,670.386,697.784,675.677Zm39.2-7.149c4.95-5.7,14.967-3.862,15.887,3.543a6.627,6.627,0,0,1-1.749,5.424C745.256,686.466,728.29,678.527,736.979,668.527Z" transform="translate(0 197.56)"/>
      <path id="Path_3954" data-name="Path 3954" class="cls-1" d="M737.169,726.664l0-.007,0,0c64.843.936,165.133,1.885,264.077,1.832V718.2c-10.6-1.689-8.848-13.575,0-15.768v-9.46c-15.215-.383-35.026-.637-69.256-.528-141.577.452-134.942-2.694-189.234-2.694-4.25,0-169.17,5.387-197.712,4.985-30.262-.426-42.557-1.224-63.906-1.763v9.46c8.9-2.209,13.831,7.223,9.127,12a8.9,8.9,0,0,1-9.127,3.771v10.281C685.74,728.378,648.428,725.2,737.169,726.664Zm212.078-25.429c5.778-.172,10.149,6.089,7.8,11.379-2.262,5.095-12.487,10.042-15.819-1.21C939.611,705.945,943.5,699.914,949.246,701.236ZM904,704.155a8.868,8.868,0,0,1,2.549,6.276c0,8.172-9.52,11.17-15.021,6.5C882.784,709.513,891.895,691.974,904,704.155Zm-57.659-3.588c11.621,0,11.024,17.243-.3,18.551a8.406,8.406,0,0,1-6.576-2.059,7.691,7.691,0,0,1-1.876-4.361C835.059,707.048,839.3,700.567,846.341,700.567ZM785.9,706.995a8.874,8.874,0,0,1,12.844-4.582,7.154,7.154,0,0,1,.48,12.1C795.291,721.822,783.031,714.561,785.9,706.995Zm-51.833.245c8.339-6.724,17.309-3.653,17.309,4.032,0,4.974-4.387,7.366-7.328,6.173C738.221,718.909,731.338,713.413,734.071,707.24Zm-198.935,9.429c-11.081,3.862-15.97-9.971-5.658-14.727a7.257,7.257,0,0,1,6.01-1.774,5,5,0,0,1,2.757,1.654.689.689,0,0,0,.059.083C544.064,705.241,543.538,716.364,535.136,716.669Zm41.687-9.013a7.738,7.738,0,0,1,2.257-3.595c5.644-7.731,17.974-5.46,17.974,4.221C597.054,723.736,573.82,718.958,576.822,707.656Zm68.132,6.5c-1.574,5.244-8.819,6.064-12.75,2.128-3.348-1.979-3.459-5.46-2.082-8.877C631.524,694.216,654.692,704.151,644.955,714.155Zm47.15-12.523c9.219.664,9.309,17.314-2.823,16.494C671.168,716.9,682.952,697.142,692.105,701.632Z" transform="translate(0 243.266)"/>
    </g>
  </g>
</svg>
