<svg xmlns="http://www.w3.org/2000/svg" width="231.241" height="49.626" viewBox="0 0 231.241 49.626">
  <g id="Group_1002" data-name="Group 1002" transform="translate(-277.903 -1956.176)">
    <path id="Path_4585" data-name="Path 4585" d="M481.951,300.08V304.3c99.279-.925-5.815,2.206,231.241,0V300.08c-.128,0-132.956.5-144.6.912C528.718,300.393,501.76,300.143,481.951,300.08Z" transform="translate(-204.048 1700.694)" fill="#263866"/>
    <path id="Path_4557" data-name="Path 4557" d="M713.192,259.723v-2.034H481.951v2.034C581.23,258.8,476.136,261.929,713.192,259.723Z" transform="translate(-204.048 1698.487)" fill="#263866"/>
    <path id="Path_4559" data-name="Path 4559" d="M546.992,278.959c10.76-9.485,3.886-4.033,15.989-14.459-12.739.1-22.937.133-31.2.123C538.417,269.93,538.626,269.928,546.992,278.959Z" transform="translate(-201.454 1698.842)" fill="#eabc44"/>
    <path id="Path_4574" data-name="Path 4574" d="M639.869,275.783c7.54-6.65,4.062-4.107,12.609-11.388-8.908.118-17,.214-24.372.292C633.156,268.722,633.371,268.766,639.869,275.783Z" transform="translate(-196.44 1698.836)" fill="#eabc44"/>
    <path id="Path_4558" data-name="Path 4558" d="M517.981,265.535c-25.41-.375-.622-.258-28.327-.053,13.169,11.422,10.19,8.66,14.6,12.528C513.146,268.247,512.245,270.857,517.981,265.535Z" transform="translate(-203.647 1698.883)" fill="#eabc44"/>
    <path id="Path_4567" data-name="Path 4567" d="M597.343,264.348c3.47-.076-1.2-.082,0,0Z" transform="translate(-198.052 1698.831)" fill="#353533"/>
    <path id="Path_4564" data-name="Path 4564" d="M614.283,264.652c-31.1-.409,1.225-.375-37.825-.063,17.437,13.847,14.059,10.961,19.5,15.337C608,267.854,606.479,271.29,614.283,264.652Z" transform="translate(-199.128 1698.834)" fill="#eabc44"/>
    <path id="Path_4580" data-name="Path 4580" d="M682.873,274.822c7.705-6.793,3.242-3.331,12.556-11.356-10,.076-18.013.1-24.5.1C676.141,267.732,676.3,267.728,682.873,274.822Z" transform="translate(-194.211 1698.788)" fill="#eabc44"/>
    <path id="Path_4575" data-name="Path 4575" d="M497.025,294.925l2.671-.015q.017-3.1.184-6.2c-1.074-.863-2.417-1.877-3.584-2.762C496.664,288.92,496.953,291.93,497.025,294.925Z" transform="translate(-203.301 1699.958)" fill="#82b55b"/>
    <path id="Path_4560" data-name="Path 4560" d="M501.794,295.74c11.145-.052,18.186-.018,23.343.063-.1-8.467.63-17.076.6-25.555l-.423-.463c-11.8,10.337-11.056,8.9-23.927,20.416C501.552,292.045,501.7,293.892,501.794,295.74Z" transform="translate(-203.036 1699.117)" fill="#82b55b"/>
    <path id="Path_4568" data-name="Path 4568" d="M538.455,283.857c-2.282-1.791-3.093-2.542-4.061-3.437a83.683,83.683,0,0,1,.682,15.147c1.156.041,2.347.082,3.636.123A107.813,107.813,0,0,1,538.455,283.857Z" transform="translate(-201.318 1699.671)" fill="#82b55b"/>
    <path id="Path_4572" data-name="Path 4572" d="M539.734,284.841a81.614,81.614,0,0,1,.9,10.686c1,.029,2.078.057,3.241.084a38.035,38.035,0,0,1,.143-7.5C542.6,287,541.162,285.928,539.734,284.841Z" transform="translate(-201.04 1699.901)" fill="#82b55b"/>
    <path id="Path_4565" data-name="Path 4565" d="M573.151,296.694c1.832,0,3.764.005,5.782.005-.683-16.679-.994-16.782-.888-21.651a76.26,76.26,0,0,0-5.915-5.355A171.806,171.806,0,0,1,573.151,296.694Z" transform="translate(-199.354 1699.112)" fill="#82b55b"/>
    <path id="Path_4566" data-name="Path 4566" d="M585.042,281.777c-1.68-1.646-3.364-3.285-5.058-4.9.579,3.763,1.383,18.741,1.414,19.444,1.232,0,2.507,0,3.808,0C584.944,291.512,585.067,286.585,585.042,281.777Z" transform="translate(-198.945 1699.486)" fill="#82b55b"/>
    <path id="Path_4569" data-name="Path 4569" d="M586.327,283.039A98.449,98.449,0,0,1,587.3,296l3.75-.007c-.028-3.653-.189-4.088-.3-8.483Q588.552,285.244,586.327,283.039Z" transform="translate(-198.615 1699.807)" fill="#82b55b"/>
    <path id="Path_4573" data-name="Path 4573" d="M623.067,296.333l4.777-.028c-.522-5.578-.371-11.478-.413-16.966-2.069-1.8-4.1-3.677-6.117-5.587A144.224,144.224,0,0,1,623.067,296.333Z" transform="translate(-196.793 1699.323)" fill="#82b55b"/>
    <path id="Path_4576" data-name="Path 4576" d="M633.415,284.1c-2.14-1.524-2.979-2.248-4.157-3.223.536,4.94,1.109,10.049,1.321,15.043l3.118-.02A112.957,112.957,0,0,1,633.415,284.1Z" transform="translate(-196.38 1699.694)" fill="#82b55b"/>
    <path id="Path_4577" data-name="Path 4577" d="M642.182,296.41q9.8-.069,20.853-.157a177.9,177.9,0,0,1-.051-26.452c-10.093,10.9-12.068,13.071-21.213,20.308A48.876,48.876,0,0,1,642.182,296.41Z" transform="translate(-195.729 1699.118)" fill="#82b55b"/>
    <path id="Path_4579" data-name="Path 4579" d="M664.874,296.125l4.526-.037a92.546,92.546,0,0,1-.074-19.609q-2.561-2.367-5.142-4.678A180.032,180.032,0,0,1,664.874,296.125Z" transform="translate(-194.562 1699.222)" fill="#82b55b"/>
    <path id="Path_4581" data-name="Path 4581" d="M670.961,278.023c.894,16.164,1.022,14.153,1.136,17.715l2.742-.023c-.32-4.817-.367-9.722-.531-14.532C673.2,280.117,672.079,279.071,670.961,278.023Z" transform="translate(-194.209 1699.546)" fill="#82b55b"/>
    <path id="Path_4583" data-name="Path 4583" d="M677.66,295.409l2.079-.018a81.887,81.887,0,0,1,.489-8.777q-1.8-1.564-3.57-3.2A96.906,96.906,0,0,1,677.66,295.409Z" transform="translate(-193.913 1699.826)" fill="#82b55b"/>
    <path id="Path_4584" data-name="Path 4584" d="M702.491,272.473c-4.88,5.465-6.143,4.949-19.169,17.609-.047-.039-.095-.078-.141-.118.1,1.585-.029.583.141,5.961,6.2-.054,12.644-.113,19.4-.175V291.96C702.623,284.941,702.261,279.339,702.491,272.473Z" transform="translate(-193.573 1699.257)" fill="#82b55b"/>
    <path id="Path_4578" data-name="Path 4578" d="M635.386,285.432c.185,1.575,1.018,8.66,1.209,10.2l3.3-.023c-.06-2.386-.037-4.8.021-7.168C638.406,287.436,636.893,286.444,635.386,285.432Z" transform="translate(-196.061 1699.931)" fill="#82b55b"/>
    <path id="Path_4570" data-name="Path 4570" d="M593.853,296.594c8.039-.021,17.225-.059,27.749-.117-.477-8.256-1.031-16.578-1.172-24.821q-.175-.169-.353-.337c-12.122,9.254-13.441,9.485-26.721,19.834A50.694,50.694,0,0,1,593.853,296.594Z" transform="translate(-198.249 1699.197)" fill="#82b55b"/>
    <path id="Path_4562" data-name="Path 4562" d="M547.009,290.53c0,.041.086,1.2.53,5.949,5.556.1,13.005.176,23.891.205-.714-8.8-.118-18.078-.049-26.938C561.573,278.283,560.77,278.25,547.009,290.53Z" transform="translate(-200.661 1699.115)" fill="#82b55b"/>
    <path id="Path_4561" data-name="Path 4561" d="M527.017,295.729c2.053.045,3.822.1,5.536.156-.178-5.969-.037-11.883-.647-17.842-1.83-1.829-3.629-3.732-5.408-5.671A143.241,143.241,0,0,1,527.017,295.729Z" transform="translate(-201.729 1699.252)" fill="#82b55b"/>
    <path id="Path_4563" data-name="Path 4563" d="M485.443,295.551c1.2-.012,2.362-.021,3.5-.029-.441-5.274-.389-10.815-.386-16.141q-1.835-1.808-3.633-3.705c.155,3.51.1,7.047.161,10.552C485.144,289.289,485.366,292.427,485.443,295.551Z" transform="translate(-203.893 1699.424)" fill="#82b55b"/>
    <path id="Path_4571" data-name="Path 4571" d="M491,281.686a77.911,77.911,0,0,1,.578,13.5c1.335-.01,2.609-.019,3.856-.027-.168-3.414-.263-6.837-.5-10.244C493.609,283.89,492.291,282.841,491,281.686Z" transform="translate(-203.577 1699.736)" fill="#82b55b"/>
    <path id="Path_4582" data-name="Path 4582" d="M481.951,291v2.009h.022C481.97,292.316,481.961,291.659,481.951,291Z" transform="translate(-204.048 1700.221)" fill="#82b55b"/>
  </g>
</svg>
