<svg xmlns="http://www.w3.org/2000/svg" width="81.795" height="40.909" viewBox="0 0 81.795 40.909">
  <g id="Group_1043" data-name="Group 1043" transform="translate(-1063.939 -448.87)">
    <path id="Path_58" data-name="Path 58" d="M1091.951,448.871H1085.5a.24.24,0,0,0-.2.1l-8.418,11.731a.24.24,0,0,1-.429-.194l2.648-11.342a.24.24,0,0,0-.234-.294h-5.356a.24.24,0,0,0-.234.186l-9.334,40.429a.24.24,0,0,0,.234.294h5.3a.24.24,0,0,0,.234-.186l3.47-15a.238.238,0,0,1,.042-.09l1.143-1.53a.24.24,0,0,1,.429.107l2.4,15.706.119.785a.24.24,0,0,0,.237.2h5.316a.24.24,0,0,0,.237-.276l-3.6-23.354a.239.239,0,0,1,.046-.181l12.594-16.713A.24.24,0,0,0,1091.951,448.871Z" transform="translate(0 -0.001)" fill="#fff"/>
    <path id="Path_59" data-name="Path 59" d="M1256.447,578.14l-5.628,24.2a.24.24,0,0,0,.234.294h5.263a.24.24,0,0,0,.234-.185l5.624-24.177a.24.24,0,0,0-.232-.294l-5.259-.025A.24.24,0,0,0,1256.447,578.14Z" transform="translate(-163.381 -112.857)" fill="#fff"/>
    <path id="Path_60" data-name="Path 60" d="M1375.113,449.057l-1.14,5.015a.24.24,0,0,0,.234.293h5.81a.24.24,0,0,1,.234.294l-8.049,34.827a.24.24,0,0,0,.234.294h5.406a.24.24,0,0,0,.234-.186l8.1-35.043a.24.24,0,0,1,.234-.186h5.934a.24.24,0,0,0,.234-.187l1.141-5.015a.24.24,0,0,0-.234-.293h-18.136A.24.24,0,0,0,1375.113,449.057Z" transform="translate(-269.506)" fill="#fff"/>
    <path id="Path_61" data-name="Path 61" d="M1546.283,449.058l-1.14,5.015a.24.24,0,0,0,.234.293h5.81a.24.24,0,0,1,.234.294l-8.048,34.827a.24.24,0,0,0,.234.294h5.405a.24.24,0,0,0,.234-.186l8.1-35.043a.239.239,0,0,1,.234-.186h5.934a.24.24,0,0,0,.234-.187l1.141-5.015a.24.24,0,0,0-.234-.293h-18.136A.24.24,0,0,0,1546.283,449.058Z" transform="translate(-419.158 -0.001)" fill="#fff"/>
    <path id="Path_62" data-name="Path 62" d="M1293.622,474.848a5.817,5.817,0,1,1,5.817-5.817,5.823,5.823,0,0,1-5.817,5.817" transform="translate(-195.724 -12.541)" fill="#eabc44"/>
  </g>
</svg>
