<svg xmlns="http://www.w3.org/2000/svg" width="70.79" height="51.212" viewBox="0 0 70.79 51.212">
  <g id="Group_1047" data-name="Group 1047" transform="translate(-1258 -3398.968)">
    <g id="Group_65" data-name="Group 65" transform="translate(-27 2460.486)">
      <path id="Path_44" data-name="Path 44" d="M1315.877,964.1l5.894-25.621h-18.692l-5.894,25.621Z" transform="translate(-6.298 0)" fill="#0f3c5e"/>
      <path id="Path_45" data-name="Path 45" d="M1296.2,985.013l-2.321,10.091,18.721-.126,1.9-8.251Z" transform="translate(-4.587 -24.05)" fill="#59b7dd"/>
      <path id="Path_46" data-name="Path 46" d="M1343.571,960.138l-2.321,10.091,18.721-.126,1.9-8.251Z" transform="translate(-29.074 -11.193)" fill="#59b7dd"/>
      <path id="Path_47" data-name="Path 47" d="M1376.009,1000.8l-2.321,10.091,18.721-.126,1.9-8.251Z" transform="translate(-45.84 -32.212)" fill="#59b7dd"/>
      <path id="Path_48" data-name="Path 48" d="M1363.5,951.526l3-13.045h-18.692l-3,13.045Z" transform="translate(-30.913 0)" fill="#0f3c5e"/>
      <path id="Path_49" data-name="Path 49" d="M1333.977,978.419l-7.342,31.917h18.692l7.342-31.917Z" transform="translate(-21.52 -20.642)" fill="#0f3c5e"/>
      <path id="Path_50" data-name="Path 50" d="M1396.344,970.368l7.335-31.887h-18.692l-7.335,31.887Z" transform="translate(-47.888 0)" fill="#0f3c5e"/>
      <path id="Path_51" data-name="Path 51" d="M1371.458,1017.419l-3.007,13.075h18.692l3.008-13.075Z" transform="translate(-43.133 -40.8)" fill="#0f3c5e"/>
      <path id="Path_52" data-name="Path 52" d="M1289.449,1004.45,1285,1023.79h18.692l4.449-19.34Z" transform="translate(0 -34.097)" fill="#0f3c5e"/>
      <path id="Path_53" data-name="Path 53" d="M1315.877,964.1l5.894-25.621h-18.692l-5.894,25.621Z" transform="translate(-6.298 0)" fill="#0f3c5e"/>
    </g>
  </g>
</svg>
