<svg xmlns="http://www.w3.org/2000/svg" width="268.41" height="49.505" viewBox="0 0 268.41 49.505">
  <g id="Group_1003" data-name="Group 1003" transform="translate(-1106.085 -2572.938)">
    <g id="Group_980" data-name="Group 980">
      <path id="Path_4597" data-name="Path 4597" d="M146.236,533.037c61.578-.582,61.972,1.39,140.58.585v-6.129c-182.664-1.86-137.814-3.585-246.5.087-2.236.076-10.209.032-21.914-.088v6.13c22.469-.231,51.315-.687,89.827-1.5C134.674,531.57,131.44,533.175,146.236,533.037Z" transform="translate(1087.68 2088.626)" fill="#334a88"/>
      <path id="Path_4586" data-name="Path 4586" d="M158.983,495.95c14.8.138,11.562-1.467,38-.911,38.512.81,67.358,1.265,89.828,1.5v-4.779H18.405v4.779C97.011,497.34,97.405,495.368,158.983,495.95Z" transform="translate(1087.68 2081.181)" fill="#334a88"/>
      <path id="Path_4587" data-name="Path 4587" d="M39.819,524.217c2.348-.041,5.082-.07,8.382-.077,3.513-11.616,17.426-12.607,20.153.14,2.977.039,6.2.087,9.7.145C76.1,499.26,46.742,490.168,39.819,524.217Z" transform="translate(1092.416 2083.442)" fill="#f3b800"/>
      <path id="Path_4588" data-name="Path 4588" d="M79.072,510.512a34.871,34.871,0,0,0-4.306,13.863c2.1.04,4.424.087,6.924.138.945-16.61,23.159-15.921,21.991.479,3.246.072,6.52.146,9.755.22C115.582,502.189,87.072,496.291,79.072,510.512Z" transform="translate(1100.145 2083.631)" fill="#f3b800"/>
      <path id="Path_4589" data-name="Path 4589" d="M133.054,502.689c-10.4-2.115-23.87,7.232-22.828,21.309,3.391.078,6.713.154,9.885.228,0-.083-.011-.161-.011-.244,0-8.985,4.8-10.081,6.172-10.752,6.914-3.4,14.8,1.911,14.28,11.475,5.98.142,6.764.208,9.142.052C150.271,512.8,142.4,504.6,133.054,502.689Z" transform="translate(1107.974 2083.533)" fill="#f3b800"/>
      <path id="Path_4591" data-name="Path 4591" d="M56.29,515.093c-4.719,0-5.075,8.833-.1,8.667a1.807,1.807,0,0,0,.775-.2C62.389,522.9,60.467,515.093,56.29,515.093Z" transform="translate(1095.243 2086.342)" fill="#82b55b"/>
      <path id="Path_4590" data-name="Path 4590" d="M86.417,517.073a4.583,4.583,0,0,0,2.8,5.627,4.189,4.189,0,0,0,5.275-4.262C94.494,512.973,87.858,512.565,86.417,517.073Z" transform="translate(1102.678 2086.097)" fill="#82b55b"/>
      <path id="Path_4592" data-name="Path 4592" d="M123.421,518.946c0,3.265,4.924,5.681,7.611,1.42a4,4,0,0,0-.523-5.058C127.77,512.738,123.421,515.673,123.421,518.946Z" transform="translate(1110.905 2086.173)" fill="#82b55b"/>
      <path id="Path_4593" data-name="Path 4593" d="M174.18,525.133l9.755.22c1.3-13.905-9.521-23.156-19.84-23.156a18.038,18.038,0,0,0-16.34,10.855l-2.489,10.106c2.1.04,4.424.087,6.923.139.447-7.847,5.985-12.049,10.685-12.049C168.02,511.248,174.8,516.479,174.18,525.133Z" transform="translate(1115.736 2083.49)" fill="#f3b800"/>
      <path id="Path_4595" data-name="Path 4595" d="M204.671,503.813c-10.4-2.115-23.869,7.232-22.827,21.309,3.39.078,6.711.154,9.884.228,0-.083-.01-.162-.01-.244,0-8.985,4.8-10.081,6.171-10.752,6.914-3.4,14.8,1.911,14.28,11.475,5.98.142,6.764.208,9.142.051C221.888,513.9,214,505.717,204.671,503.813Z" transform="translate(1123.813 2083.781)" fill="#f3b800"/>
      <path id="Path_4596" data-name="Path 4596" d="M199.463,515.172c-2.06,0-4.119,2.254-4.119,4.55,0,2.944,2.81,5.26,5.506,4.377,1.029-.338,3.086-2.32,3.086-4.236A4.661,4.661,0,0,0,199.463,515.172Z" transform="translate(1126.812 2086.36)" fill="#82b55b"/>
      <path id="Path_4594" data-name="Path 4594" d="M156.52,516.713c-.315.595.863,5.056,3.579,5.452,2.133.313,3.021-.741,3.552-2.617C164.845,515.338,158.7,512.6,156.52,516.713Z" transform="translate(1118.214 2086.251)" fill="#82b55b"/>
      <path id="Path_4165" data-name="Path 4165" d="M18.405,512.894c2.925.614,8.879,5.5,10.519,11.715,2.467-.121,5.013-.238,8.411-.324-1.2-11.729-7.677-20.068-18.93-22.359Z" transform="translate(1087.68 2083.43)" fill="#f3b800"/>
      <path id="Path_4166" data-name="Path 4166" d="M18.405,515.644v7.3C22.025,521.666,22.112,516.581,18.405,515.644Z" transform="translate(1087.68 2086.464)" fill="#82b55b"/>
      <path id="Path_4167" data-name="Path 4167" d="M221.591,525.67a57.4,57.4,0,0,1,8.366-.4c-.5-8.4,5.765-13.6,12-12.291V502.007C229.619,499.5,219.132,507.47,221.591,525.67Z" transform="translate(1132.537 2083.348)" fill="#f3b800"/>
      <path id="Path_4168" data-name="Path 4168" d="M239.038,515.665a3.978,3.978,0,0,0-2.125.06c-4.457,1.315-2.38,8.84,2.125,7.244Z" transform="translate(1135.457 2086.443)" fill="#82b55b"/>
    </g>
  </g>
</svg>
