<svg xmlns="http://www.w3.org/2000/svg" width="64.826" height="52.897" viewBox="0 0 64.826 52.897">
  <g id="Group_1044" data-name="Group 1044" transform="translate(-238 -3398.176)">
    <g id="Group_328" data-name="Group 328" transform="translate(238 3398.176)">
      <g id="Group_13" data-name="Group 13">
        <path id="Path_7" data-name="Path 7" d="M-17.832,0-30,52.9h19.307L1.476,0Z" transform="translate(30)" fill="#0f3c5e"/>
      </g>
      <g id="Group_14" data-name="Group 14" transform="translate(25.878 13.949)">
        <path id="Path_8" data-name="Path 8" d="M-28.538-57.077A19.5,19.5,0,0,1-48.012-76.551,19.5,19.5,0,0,1-28.538-96.025,19.5,19.5,0,0,1-9.064-76.551,19.5,19.5,0,0,1-28.538-57.077m0-27.294a7.829,7.829,0,0,0-7.82,7.82,7.829,7.829,0,0,0,7.82,7.82,7.829,7.829,0,0,0,7.82-7.82,7.829,7.829,0,0,0-7.82-7.82" transform="translate(48.012 96.025)" fill="#eabc44"/>
      </g>
      <g id="Group_15" data-name="Group 15" transform="translate(40.974 29.045)">
        <path id="Path_9" data-name="Path 9" d="M-12.832-6.417a4.378,4.378,0,0,1-4.378,4.378,4.378,4.378,0,0,1-4.378-4.378A4.378,4.378,0,0,1-17.211-10.8a4.378,4.378,0,0,1,4.378,4.378" transform="translate(21.589 10.795)" fill="#0f3c5e"/>
      </g>
      <path id="Path_10" data-name="Path 10" d="M0-77.519H64.826v-52.9H0Z" transform="translate(0 130.416)" fill="none"/>
    </g>
  </g>
</svg>
