<svg xmlns="http://www.w3.org/2000/svg" width="209.577" height="37.856" viewBox="0 0 209.577 37.856">
  <g id="Group_1001" data-name="Group 1001" transform="translate(-1106.198 -1266.382)">
    <path id="Path_4554" data-name="Path 4554" d="M1258.78-2118.876c48.081-.455,48.389,1.085,109.766.456v-4.786c-142.626-1.452-107.606-2.8-192.467.068-1.746.059-7.971.025-17.111-.068v4.786c17.545-.18,40.068-.536,70.138-1.167C1249.752-2120.021,1247.227-2118.768,1258.78-2118.876Z" transform="translate(-52.77 3422.505)" fill="#183b5b"/>
    <path id="Path_4555" data-name="Path 4555" d="M1266.655-2362.011c46.734-1.539,15.766-2.7,88.655-.264,4.414.147,8.827.237,13.236.3v-4.773h-120.83c-19.218,1.114-14.466,1.407-54.836.309a33.215,33.215,0,0,1-3.358-.309h-30.554v4.773q8.011.109,16,.11C1245.957-2361.757,1220.457-2360.49,1266.655-2362.011Z" transform="translate(-52.77 3633.132)" fill="#183b5b"/>
    <path id="Path_4556" data-name="Path 4556" d="M1334.787-2279.559l0,0v0c9.574.147,21.076.294,33.756.421v-15.375c-96.458-2.658-70.09,1.7-142,.434-18.79-.332-44.095.213-67.576-.434v15.375C1327.622-2277.455,1252.163-2281,1334.787-2279.559Zm19.639-8.416a3.5,3.5,0,0,1,5.176-1.96,3.164,3.164,0,0,1,.193,5.176C1358.208-2281.63,1353.267-2284.737,1354.426-2287.974Zm-15.648-2.217c.434.219,2.108,2.179,2.108,3.586,0,4.327-7.668,5.454-7.668-.195A3.756,3.756,0,0,1,1338.778-2290.191Zm-23.7-.416c5.132-1.83,6.153,8.447-.022,8.447C1310.786-2282.16,1310.218-2288.876,1315.075-2290.607Zm-17.687.416c.433.219,2.108,2.179,2.108,3.586,0,4.327-7.668,5.454-7.668-.195A3.756,3.756,0,0,1,1297.388-2290.191Zm-26.351,1.017a10.814,10.814,0,0,1,3.6-.915c2.139,0,3.695,1.831,2.921,4.416-.59,1.972-1.3,3.23-3.421,3.23C1269.63-2282.443,1268.611-2288.254,1271.037-2289.175Zm-19.938-.961a2.812,2.812,0,0,1,2.422-.759,2.01,2.01,0,0,1,1.111.707.194.194,0,0,0,.024.036c2.32,1.427,2.108,6.187-1.277,6.317C1248.913-2282.183,1246.943-2288.1,1251.1-2290.136Zm-84.669,6.467a3.4,3.4,0,0,1-.755-1.865,3.738,3.738,0,0,1,3.527-5.19,3.408,3.408,0,0,1,3.418,3.671C1172.62-2283.257,1168.394-2281.57,1166.43-2283.668Zm20.979-.053c-3.133-2.823-.526-8.956,3.246-6.839C1196.823-2287.1,1191.491-2280.044,1187.409-2283.722Zm26.4-1.848c-.912,2.18-5.031,4.3-6.374-.517-.651-2.336.915-4.916,3.231-4.351A3.537,3.537,0,0,1,1213.809-2285.57Zm15.793-3.058c1.995-2.438,6.031-1.652,6.4,1.516a2.948,2.948,0,0,1-.705,2.32C1232.938-2280.953,1226.1-2284.35,1229.6-2288.628Z" transform="translate(-52.77 3571.007)" fill="#f3b800"/>
  </g>
</svg>
